<svg width="182" height="20" viewBox="0 0 182 20" fill="none" xmlns="http://www.w3.org/2000/svg">
<path d="M10.0001 1.6665L12.5751 6.88317L18.3334 7.72484L14.1667 11.7832L15.1501 17.5165L10.0001 14.8082L4.85008 17.5165L5.83341 11.7832L1.66675 7.72484L7.42508 6.88317L10.0001 1.6665Z" fill="#FACC15" stroke="#FACC15" stroke-width="2" stroke-linecap="round" stroke-linejoin="round"/>
<path d="M30.0001 1.6665L32.5751 6.88317L38.3334 7.72484L34.1667 11.7832L35.1501 17.5165L30.0001 14.8082L24.8501 17.5165L25.8334 11.7832L21.6667 7.72484L27.4251 6.88317L30.0001 1.6665Z" fill="#FACC15" stroke="#FACC15" stroke-width="2" stroke-linecap="round" stroke-linejoin="round"/>
<path d="M50.0001 1.6665L52.5751 6.88317L58.3334 7.72484L54.1667 11.7832L55.1501 17.5165L50.0001 14.8082L44.8501 17.5165L45.8334 11.7832L41.6667 7.72484L47.4251 6.88317L50.0001 1.6665Z" fill="#FACC15" stroke="#FACC15" stroke-width="2" stroke-linecap="round" stroke-linejoin="round"/>
<path d="M70.0001 1.6665L72.5751 6.88317L78.3334 7.72484L74.1667 11.7832L75.1501 17.5165L70.0001 14.8082L64.8501 17.5165L65.8334 11.7832L61.6667 7.72484L67.4251 6.88317L70.0001 1.6665Z" fill="#FACC15" stroke="#FACC15" stroke-width="2" stroke-linecap="round" stroke-linejoin="round"/>
<path d="M90.0001 1.6665L92.5751 6.88317L98.3334 7.72484L94.1667 11.7832L95.1501 17.5165L90.0001 14.8082L84.8501 17.5165L85.8334 11.7832L81.6667 7.72484L87.4251 6.88317L90.0001 1.6665Z" fill="#FACC15" stroke="#FACC15" stroke-width="2" stroke-linecap="round" stroke-linejoin="round"/>
</svg>
