<svg width="182" height="20" viewBox="0 0 182 20" fill="none" xmlns="http://www.w3.org/2000/svg">
<path d="M9.99999 1.66667L12.575 6.88334L18.3333 7.72501L14.1667 11.7833L15.15 17.5167L9.99999 14.8083L4.84999 17.5167L5.83332 11.7833L1.66666 7.72501L7.42499 6.88334L9.99999 1.66667Z" fill="#FACC15" stroke="#FACC15" stroke-width="2" stroke-linecap="round" stroke-linejoin="round"/>
<path d="M30 1.66667L32.575 6.88334L38.3333 7.72501L34.1667 11.7833L35.15 17.5167L30 14.8083L24.85 17.5167L25.8333 11.7833L21.6667 7.72501L27.425 6.88334L30 1.66667Z" fill="#FACC15" stroke="#FACC15" stroke-width="2" stroke-linecap="round" stroke-linejoin="round"/>
<path d="M50 1.66667L52.575 6.88334L58.3333 7.72501L54.1667 11.7833L55.15 17.5167L50 14.8083L44.85 17.5167L45.8333 11.7833L41.6667 7.72501L47.425 6.88334L50 1.66667Z" fill="#FACC15" stroke="#FACC15" stroke-width="2" stroke-linecap="round" stroke-linejoin="round"/>
<path d="M70 1.66667L72.575 6.88334L78.3334 7.72501L74.1667 11.7833L75.15 17.5167L70 14.8083L64.85 17.5167L65.8334 11.7833L61.6667 7.72501L67.425 6.88334L70 1.66667Z" fill="#FACC15" stroke="#FACC15" stroke-width="2" stroke-linecap="round" stroke-linejoin="round"/>
<path d="M90 1.66667L92.575 6.88334L98.3334 7.72501L94.1667 11.7833L95.15 17.5167L90 14.8083L84.85 17.5167L85.8334 11.7833L81.6667 7.72501L87.425 6.88334L90 1.66667Z" stroke="#FACC15" stroke-width="2" stroke-linecap="round" stroke-linejoin="round"/>
</svg>
