<svg width="1442" height="608" viewBox="0 0 1442 608" fill="none" xmlns="http://www.w3.org/2000/svg">
<g clip-path="url(#clip0_242_223)">
<rect width="1442" height="608" fill="url(#paint0_linear_242_223)"/>
<path d="M546.458 101.167C537.605 101.194 529.066 97.7837 522.533 91.6114C516 85.4391 511.952 76.9558 511.19 67.8442C510.429 58.7325 513.01 49.658 518.422 42.4204C523.834 35.1828 531.682 30.3108 540.408 28.7707C569.146 23.0415 576.708 20.3332 586.792 7.4165C591.833 17.8332 596.875 29.1873 596.875 49.0832C596.875 77.729 572.776 101.167 546.458 101.167Z" stroke="black" stroke-width="2" stroke-linecap="round" stroke-linejoin="round"/>
<path d="M501.083 106.375C501.083 90.75 510.411 78.4583 526.695 75.125C538.896 72.625 551.5 64.7083 556.542 59.5" stroke="black" stroke-width="2" stroke-linecap="round" stroke-linejoin="round"/>
<path d="M995.875 594.666C987.754 594.69 979.92 591.852 973.927 586.717C967.934 581.581 964.22 574.523 963.522 566.942C962.823 559.361 965.191 551.811 970.156 545.79C975.121 539.768 982.32 535.715 990.325 534.433C1016.69 529.667 1023.62 527.413 1032.87 516.667C1037.5 525.333 1042.12 534.78 1042.12 551.333C1042.12 575.167 1020.02 594.666 995.875 594.666Z" stroke="black" stroke-width="2" stroke-linecap="round" stroke-linejoin="round"/>
<path d="M954.25 599C954.25 586 962.806 575.773 977.745 573C988.938 570.92 1000.5 564.333 1005.12 560" stroke="black" stroke-width="2" stroke-linecap="round" stroke-linejoin="round"/>
<path d="M693 170C688.318 170.014 683.801 168.268 680.345 165.108C676.89 161.948 674.749 157.604 674.346 152.939C673.943 148.274 675.309 143.628 678.171 139.922C681.034 136.216 685.184 133.722 689.8 132.933C705 130 709 128.613 714.333 122C717 127.333 719.667 133.147 719.667 143.333C719.667 158 706.92 170 693 170Z" stroke="#BBF7D0" stroke-width="2" stroke-linecap="round" stroke-linejoin="round"/>
<path d="M669 172.667C669 164.667 673.933 158.373 682.547 156.667C689 155.387 695.667 151.333 698.333 148.667" stroke="#BBF7D0" stroke-width="2" stroke-linecap="round" stroke-linejoin="round"/>
<path d="M111.667 149.666C104.058 149.69 96.7178 146.852 91.103 141.717C85.4881 136.581 82.0084 129.523 81.3539 121.942C80.6995 114.361 82.9181 106.811 87.5697 100.79C92.2214 94.768 98.9663 90.7145 106.467 89.4332C131.167 84.6665 137.667 82.4132 146.333 71.6665C150.667 80.3332 155 89.7798 155 106.333C155 130.166 134.287 149.666 111.667 149.666Z" stroke="black" stroke-width="2" stroke-linecap="round" stroke-linejoin="round"/>
<path d="M72.6667 154C72.6667 141 80.6834 130.773 94.6801 128C105.167 125.92 116 119.333 120.333 115" stroke="black" stroke-width="2" stroke-linecap="round" stroke-linejoin="round"/>
<path d="M1133.5 159C1127.35 159.019 1121.43 156.727 1116.89 152.579C1112.36 148.431 1109.55 142.73 1109.02 136.607C1108.49 130.484 1110.28 124.386 1114.04 119.523C1117.79 114.659 1123.24 111.385 1129.3 110.35C1149.25 106.5 1154.5 104.68 1161.5 96C1165 103 1168.5 110.63 1168.5 124C1168.5 143.25 1151.77 159 1133.5 159Z" stroke="black" stroke-width="2" stroke-linecap="round" stroke-linejoin="round"/>
<path d="M1102 162.5C1102 152 1108.47 143.74 1119.78 141.5C1128.25 139.82 1137 134.5 1140.5 131" stroke="black" stroke-width="2" stroke-linecap="round" stroke-linejoin="round"/>
<path d="M268.458 526.167C259.605 526.194 251.066 522.784 244.533 516.611C238 510.439 233.952 501.956 233.19 492.844C232.429 483.732 235.01 474.658 240.422 467.42C245.834 460.183 253.682 455.311 262.408 453.771C291.146 448.042 298.708 445.333 308.792 432.417C313.833 442.833 318.875 454.187 318.875 474.083C318.875 502.729 294.776 526.167 268.458 526.167Z" stroke="black" stroke-width="2" stroke-linecap="round" stroke-linejoin="round"/>
<path d="M223.083 531.375C223.083 515.75 232.411 503.458 248.695 500.125C260.896 497.625 273.5 489.708 278.542 484.5" stroke="black" stroke-width="2" stroke-linecap="round" stroke-linejoin="round"/>
<path d="M1317.08 520.667C1310.21 520.684 1303.57 518.502 1298.5 514.551C1293.42 510.601 1290.28 505.172 1289.69 499.34C1289.09 493.509 1291.1 487.701 1295.3 483.069C1299.51 478.437 1305.6 475.319 1312.38 474.333C1334.71 470.667 1340.58 468.933 1348.42 460.667C1352.33 467.333 1356.25 474.6 1356.25 487.333C1356.25 505.667 1337.53 520.667 1317.08 520.667Z" stroke="black" stroke-width="2" stroke-linecap="round" stroke-linejoin="round"/>
<path d="M1281.83 524C1281.83 514 1289.08 506.133 1301.73 504C1311.21 502.4 1321 497.333 1324.92 494" stroke="black" stroke-width="2" stroke-linecap="round" stroke-linejoin="round"/>
<path d="M72.0001 491C67.3176 491.014 62.8008 489.268 59.3455 486.108C55.8902 482.948 53.7488 478.604 53.3461 473.939C52.9433 469.274 54.3086 464.628 57.1712 460.922C60.0337 457.216 64.1845 454.722 68.8001 453.933C84.0001 451 88.0001 449.613 93.3334 443C96.0001 448.333 98.6668 454.147 98.6668 464.333C98.6668 479 85.9201 491 72.0001 491Z" stroke="#BBF7D0" stroke-width="2" stroke-linecap="round" stroke-linejoin="round"/>
<path d="M48 493.667C48 485.667 52.9333 479.373 61.5467 477.667C68 476.387 74.6667 472.333 77.3333 469.667" stroke="#BBF7D0" stroke-width="2" stroke-linecap="round" stroke-linejoin="round"/>
<path d="M1357.02 266.328C1350.06 266.347 1343.36 264.082 1338.23 259.984C1333.1 255.885 1329.92 250.252 1329.33 244.202C1328.73 238.152 1330.75 232.126 1335 227.321C1339.25 222.515 1345.41 219.28 1352.27 218.257C1374.83 214.453 1380.77 212.655 1388.68 204.078C1392.64 210.995 1396.6 218.534 1396.6 231.745C1396.6 250.766 1377.68 266.328 1357.02 266.328Z" stroke="#BBF7D0" stroke-width="2" stroke-linecap="round" stroke-linejoin="round"/>
<path d="M1321.39 269.787C1321.39 259.412 1328.71 251.25 1341.5 249.037C1351.08 247.377 1360.97 242.12 1364.93 238.662" stroke="#BBF7D0" stroke-width="2" stroke-linecap="round" stroke-linejoin="round"/>
</g>
<defs>
<linearGradient id="paint0_linear_242_223" x1="0" y1="304" x2="1442" y2="304" gradientUnits="userSpaceOnUse">
<stop stop-color="#16A34A"/>
<stop offset="1" stop-color="#166534"/>
</linearGradient>
<clipPath id="clip0_242_223">
<rect width="1442" height="608" fill="white"/>
</clipPath>
</defs>
</svg>
